<mxfile host="65bd71144e">
    <diagram id="K5WQx32XOAPijv48znus" name="第 1 页">
        <mxGraphModel dx="982" dy="716" grid="1" gridSize="10" guides="1" tooltips="1" connect="1" arrows="1" fold="1" page="1" pageScale="1" pageWidth="827" pageHeight="1169" math="0" shadow="0">
            <root>
                <mxCell id="0"/>
                <mxCell id="1" parent="0"/>
                <mxCell id="3" value="Global Object" style="swimlane;fontStyle=0;childLayout=stackLayout;horizontal=1;startSize=30;horizontalStack=0;resizeParent=1;resizeParentMax=0;resizeLast=0;collapsible=1;marginBottom=0;" vertex="1" parent="1">
                    <mxGeometry x="280" y="40" width="210" height="120" as="geometry">
                        <mxRectangle x="430" y="170" width="110" height="30" as="alternateBounds"/>
                    </mxGeometry>
                </mxCell>
                <mxCell id="4" value="message: undefined -&gt; hello Global" style="text;strokeColor=none;fillColor=none;align=left;verticalAlign=middle;spacingLeft=4;spacingRight=4;overflow=hidden;points=[[0,0.5],[1,0.5]];portConstraint=eastwest;rotatable=0;" vertex="1" parent="3">
                    <mxGeometry y="30" width="210" height="30" as="geometry"/>
                </mxCell>
                <mxCell id="5" value="foo: 0xa00" style="text;strokeColor=none;fillColor=none;align=left;verticalAlign=middle;spacingLeft=4;spacingRight=4;overflow=hidden;points=[[0,0.5],[1,0.5]];portConstraint=eastwest;rotatable=0;" vertex="1" parent="3">
                    <mxGeometry y="60" width="210" height="30" as="geometry"/>
                </mxCell>
                <mxCell id="6" value="bar: 0xb00" style="text;strokeColor=none;fillColor=none;align=left;verticalAlign=middle;spacingLeft=4;spacingRight=4;overflow=hidden;points=[[0,0.5],[1,0.5]];portConstraint=eastwest;rotatable=0;" vertex="1" parent="3">
                    <mxGeometry y="90" width="210" height="30" as="geometry"/>
                </mxCell>
                <mxCell id="7" value="foo: 0xa00" style="swimlane;fontStyle=0;childLayout=stackLayout;horizontal=1;startSize=30;horizontalStack=0;resizeParent=1;resizeParentMax=0;resizeLast=0;collapsible=1;marginBottom=0;" vertex="1" parent="1">
                    <mxGeometry x="540" y="40" width="200" height="70" as="geometry">
                        <mxRectangle x="430" y="170" width="110" height="30" as="alternateBounds"/>
                    </mxGeometry>
                </mxCell>
                <mxCell id="31" value="[scoped] GO" style="text;html=1;align=center;verticalAlign=middle;resizable=0;points=[];autosize=1;strokeColor=none;fillColor=none;" vertex="1" parent="7">
                    <mxGeometry y="30" width="200" height="20" as="geometry"/>
                </mxCell>
                <mxCell id="32" value="函数体： 代码块" style="text;html=1;align=center;verticalAlign=middle;resizable=0;points=[];autosize=1;strokeColor=none;fillColor=none;" vertex="1" parent="7">
                    <mxGeometry y="50" width="200" height="20" as="geometry"/>
                </mxCell>
                <object label="bar: 0xb00" message="undefined" foo="0xa00" id="11">
                    <mxCell style="swimlane;fontStyle=0;childLayout=stackLayout;horizontal=1;startSize=30;horizontalStack=0;resizeParent=1;resizeParentMax=0;resizeLast=0;collapsible=1;marginBottom=0;" vertex="1" parent="1">
                        <mxGeometry x="790" y="40" width="210" height="70" as="geometry">
                            <mxRectangle x="620" y="40" width="110" height="30" as="alternateBounds"/>
                        </mxGeometry>
                    </mxCell>
                </object>
                <mxCell id="23" value="[scoped] GO" style="text;html=1;align=center;verticalAlign=middle;resizable=0;points=[];autosize=1;strokeColor=none;fillColor=none;" vertex="1" parent="11">
                    <mxGeometry y="30" width="210" height="20" as="geometry"/>
                </mxCell>
                <mxCell id="33" value="函数体： 代码块" style="text;html=1;align=center;verticalAlign=middle;resizable=0;points=[];autosize=1;strokeColor=none;fillColor=none;" vertex="1" parent="11">
                    <mxGeometry y="50" width="210" height="20" as="geometry"/>
                </mxCell>
                <mxCell id="25" value="" style="rounded=0;whiteSpace=wrap;html=1;" vertex="1" parent="1">
                    <mxGeometry x="40" y="40" width="210" height="490" as="geometry"/>
                </mxCell>
                <mxCell id="26" value="ECS" style="text;html=1;align=center;verticalAlign=middle;resizable=0;points=[];autosize=1;strokeColor=none;fillColor=none;" vertex="1" parent="1">
                    <mxGeometry x="40" y="20" width="40" height="20" as="geometry"/>
                </mxCell>
                <mxCell id="27" value="VO: GO&lt;br&gt;scoped: VO&lt;br&gt;&lt;div style=&quot;&quot;&gt;&lt;span&gt;执行过程&lt;/span&gt;&lt;/div&gt;" style="rounded=0;whiteSpace=wrap;html=1;align=left;" vertex="1" parent="1">
                    <mxGeometry x="50" y="440" width="190" height="70" as="geometry"/>
                </mxCell>
                <mxCell id="28" value="GEC" style="text;html=1;strokeColor=none;fillColor=none;align=center;verticalAlign=middle;whiteSpace=wrap;rounded=0;" vertex="1" parent="1">
                    <mxGeometry x="30" y="410" width="60" height="30" as="geometry"/>
                </mxCell>
                <mxCell id="29" value="VO: AO&lt;br&gt;scoped: VO&lt;br&gt;执行过程" style="rounded=0;whiteSpace=wrap;html=1;align=left;" vertex="1" parent="1">
                    <mxGeometry x="50" y="320" width="190" height="80" as="geometry"/>
                </mxCell>
                <mxCell id="30" value="FEC (bar)" style="text;html=1;strokeColor=none;fillColor=none;align=center;verticalAlign=middle;whiteSpace=wrap;rounded=0;" vertex="1" parent="1">
                    <mxGeometry x="50" y="290" width="60" height="30" as="geometry"/>
                </mxCell>
                <mxCell id="34" value="AO （bar）" style="swimlane;fontStyle=0;childLayout=stackLayout;horizontal=1;startSize=30;horizontalStack=0;resizeParent=1;resizeParentMax=0;resizeLast=0;collapsible=1;marginBottom=0;" vertex="1" parent="1">
                    <mxGeometry x="280" y="325" width="210" height="70" as="geometry">
                        <mxRectangle x="280" y="200" width="110" height="30" as="alternateBounds"/>
                    </mxGeometry>
                </mxCell>
                <mxCell id="43" value="&lt;span style=&quot;text-align: left&quot;&gt;message: undefined -&amp;gt; hello Bar&lt;/span&gt;" style="text;html=1;align=center;verticalAlign=middle;resizable=0;points=[];autosize=1;strokeColor=none;fillColor=none;" vertex="1" parent="34">
                    <mxGeometry y="30" width="210" height="20" as="geometry"/>
                </mxCell>
                <mxCell id="47" value="&lt;div style=&quot;text-align: left&quot;&gt;&lt;span&gt;foo: 0xa00&lt;/span&gt;&lt;/div&gt;" style="text;html=1;align=center;verticalAlign=middle;resizable=0;points=[];autosize=1;strokeColor=none;fillColor=none;" vertex="1" parent="34">
                    <mxGeometry y="50" width="210" height="20" as="geometry"/>
                </mxCell>
                <mxCell id="48" value="" style="endArrow=classic;html=1;exitX=1;exitY=0.5;exitDx=0;exitDy=0;entryX=0;entryY=0.25;entryDx=0;entryDy=0;" edge="1" parent="1" source="29" target="34">
                    <mxGeometry width="50" height="50" relative="1" as="geometry">
                        <mxPoint x="270" y="390" as="sourcePoint"/>
                        <mxPoint x="320" y="340" as="targetPoint"/>
                    </mxGeometry>
                </mxCell>
                <mxCell id="49" value="VO: AO&lt;br&gt;scoped: VO + parentScoped ( GO)&lt;br&gt;执行过程&lt;br&gt;&lt;span style=&quot;white-space: pre&quot;&gt;&#9;&lt;/span&gt;console.log(&quot;hello&amp;nbsp; Global &quot;)" style="rounded=0;whiteSpace=wrap;html=1;align=left;" vertex="1" parent="1">
                    <mxGeometry x="50" y="200" width="190" height="80" as="geometry"/>
                </mxCell>
                <mxCell id="50" value="FEC (foo)" style="text;html=1;strokeColor=none;fillColor=none;align=center;verticalAlign=middle;whiteSpace=wrap;rounded=0;" vertex="1" parent="1">
                    <mxGeometry x="50" y="170" width="60" height="30" as="geometry"/>
                </mxCell>
                <mxCell id="51" value="AO （foo）" style="swimlane;fontStyle=0;childLayout=stackLayout;horizontal=1;startSize=30;horizontalStack=0;resizeParent=1;resizeParentMax=0;resizeLast=0;collapsible=1;marginBottom=0;" vertex="1" parent="1">
                    <mxGeometry x="280" y="205" width="210" height="60" as="geometry">
                        <mxRectangle x="280" y="200" width="110" height="30" as="alternateBounds"/>
                    </mxGeometry>
                </mxCell>
                <mxCell id="54" value="" style="endArrow=classic;html=1;exitX=1;exitY=0.5;exitDx=0;exitDy=0;entryX=0;entryY=0.25;entryDx=0;entryDy=0;" edge="1" parent="1" source="49" target="51">
                    <mxGeometry width="50" height="50" relative="1" as="geometry">
                        <mxPoint x="250" y="370" as="sourcePoint"/>
                        <mxPoint x="290" y="352.5" as="targetPoint"/>
                    </mxGeometry>
                </mxCell>
            </root>
        </mxGraphModel>
    </diagram>
</mxfile>